<svg id="Layer_1" data-name="Layer 1" xmlns="http://www.w3.org/2000/svg" viewBox="0 0 1000 1000"><defs><style>.cls-1{fill:#568e43;}.cls-2{fill:#679a54;}.cls-3{fill:#257601;}.cls-4{fill:#308c02;}.cls-5{fill:#faa231;}.cls-6{fill:#efbb8f;}.cls-7{fill:#ebb582;}.cls-8{fill:#f3ad58;}.cls-9{fill:#e3a560;}.cls-10{fill:#e79d6d;}.cls-11{fill:#e69558;}.cls-12{fill:#edb182;}.cls-13{fill:#edbc9c;}.cls-14{fill:#edb28a;}.cls-15{fill:#e79663;}.cls-16{fill:#e4945e;}.cls-17{fill:#f1822b;}.cls-18{fill:#f99e30;}.cls-19{fill:#f4892b;}.cls-20{fill:#faa230;}.cls-21{fill:#feaf36;}.cls-22{fill:#f27228;}.cls-23{fill:#ebad55;}.cls-24{fill:#eea752;}.cls-25{fill:#eda26a;}.cls-26{fill:#ef7225;}.cls-27{fill:#fff;}</style></defs><path class="cls-1" d="M505.8,461l16.51.94a7.92,7.92,0,0,1,6.08,3.66l-2.14.15c-2.42.27-4.4-.9-6.41-1.95-3-1.31-6.35.32-9.39-.91a4,4,0,0,1-.91-.07C508.7,461.36,506.61,462.5,505.8,461Z"/><path class="cls-2" d="M510.45,462.88c3.12.34,6.41-1,9.39.91C516.71,463.47,513.44,464.63,510.45,462.88Z"/><path class="cls-3" d="M468.37,564a9.14,9.14,0,0,1-1.93.35c-5.13-.37-10,1.09-14.94,2.1a51.23,51.23,0,0,0-13.45,4.3c-3.92,2-8.12,3.56-11.88,5.85a98.38,98.38,0,0,0-12,8.7,105.32,105.32,0,0,0-9.8,9.68,70.67,70.67,0,0,0-11.19,16.37c-2.33,4.73-4.29,9.65-6.41,14.48a.58.58,0,0,0-.06.17c-.8,3.73-1.66,7.45-2.38,11.2A62.89,62.89,0,0,0,383,646a110.86,110.86,0,0,0,0,14.92c.41,4.43,1.72,8.77,2.65,13.15.12.59.22,1.18.39,1.75,1,3.17,1.8,6.42,3.07,9.48a90.42,90.42,0,0,0,5.74,12.09,116.76,116.76,0,0,0,7.93,10.79,71.67,71.67,0,0,0,6,7.28,92.43,92.43,0,0,0,7.8,6.54,72.86,72.86,0,0,0,7.47,5.54A124.38,124.38,0,0,0,436,733.75a109.31,109.31,0,0,0,10.71,4c8.48,2.84,17.27,3.42,26.12,3.27a111,111,0,0,0,12.77-.8,72,72,0,0,0,9.7-2.41,78.16,78.16,0,0,0,7.78-2.48,84.13,84.13,0,0,0,8.31-3.8,73.24,73.24,0,0,0,7.52-4.5,91,91,0,0,0,9.74-7.31A105,105,0,0,0,540,708a98.75,98.75,0,0,0,8.91-13.65c2.17-3.93,3.64-8.26,5.44-12.4,1.93-4.43,2.66-9.14,3.69-13.82,2-9.24,1.18-18.5.83-27.76-.12-3.1-1.22-6.18-2-9.23a73.84,73.84,0,0,0-2.95-9.37c-1.87-4.43-4.06-8.73-6.23-13-1-1.91-2.25-3.66-3.34-5.51a9.22,9.22,0,0,1-.59-1.82c1.23.13,2.16.22,3.08.34a68.5,68.5,0,0,0,7.63.94c4.26,0,8.53-.16,12.78-.44,1.87-.13,3.7-.82,5.58-1a2.22,2.22,0,0,1,1.76,1c1.63,3.18,3.18,6.41,4.6,9.69a47.5,47.5,0,0,1,1.9,5.77c1.05,3.68,2,7.37,3,11.06a17.94,17.94,0,0,1,.41,1.76,120.81,120.81,0,0,1,2,26.1c-.2,4.49,0,9-1.29,13.4-.58,2-.14,4.24-.67,6.24q-2,7.77-4.56,15.42a91,91,0,0,1-4.35,11.2,125.23,125.23,0,0,1-6.94,12.52A119.08,119.08,0,0,1,554,733.59a109.47,109.47,0,0,1-18.32,15.26,111.36,111.36,0,0,1-15.31,8.62c-3.46,1.62-6.9,3.29-10.45,4.71a59.41,59.41,0,0,1-7.23,2.12q-6.09,1.51-12.2,2.87a49.14,49.14,0,0,1-5,.72,153.24,153.24,0,0,1-32.19-.34c-3.84-.38-7.61-1.58-11.39-2.51-3.13-.76-6.25-1.6-9.33-2.54a29.85,29.85,0,0,1-4.24-1.81c-4.2-2-8.52-3.82-12.54-6.14A163.83,163.83,0,0,1,401.11,745a95.05,95.05,0,0,1-10.54-9.22c-3.65-3.61-7.1-7.45-10.39-11.4a62.9,62.9,0,0,1-5.55-8.15c-2.78-4.66-5.44-9.4-8-14.18A57.55,57.55,0,0,1,364,695.8c-.86-2.2-1.71-4.41-2.48-6.65s-1.6-4.62-2.22-7a65,65,0,0,1-1.78-8.24c-.69-5.41-1.21-10.85-1.66-16.29A73.13,73.13,0,0,1,357,638.28c.08-.41.07-.84.13-1.25.75-4.66,1.35-9.35,2.32-14A64.23,64.23,0,0,1,362,615.6c.77-2.23,1.39-4.52,2.29-6.7a69.1,69.1,0,0,1,4-8.78A166.55,166.55,0,0,1,377.92,585,123.71,123.71,0,0,1,389.27,572a86.18,86.18,0,0,1,17.37-13.8c4.77-2.82,9.52-5.7,14.42-8.27a76.46,76.46,0,0,1,9.44-3.9c4.49-1.63,9.05-3.09,13.58-4.62.74-.25,1.5-.44,2.25-.63,2.3-.61,3.71.36,5.08,2.24,3.12,4.31,6.46,8.45,9.79,12.6C463.44,558.36,465.81,561,468.37,564Z"/><path class="cls-3" d="M451.82,391.8c1.66,1.13,3.4,2.15,5,3.4,3.51,2.79,6.84,5.81,10.41,8.52,2.76,2.09,5.79,3.81,8.67,5.75,3.71,2.5,7.35,5.11,11.08,7.58a143.7,143.7,0,0,1,20.59,17A69.78,69.78,0,0,1,519,448.52c2.71,4.56,5.71,9,7.93,13.8,1.93,4.2,2.87,8.84,4.38,13.25,2.11,6.12,2,12.53,2.39,18.84a67.9,67.9,0,0,1-.57,12,101.1,101.1,0,0,1-2.28,13.42A121.54,121.54,0,0,1,526.58,532c-.71,1.9-1.54,3.76-2.35,5.62a6.38,6.38,0,0,1-1,1.68A87.31,87.31,0,0,0,512,555c-1.92,3.42-3.52,7-5.28,10.52-.07.14-.23.23-.88.32,0-1.13-.08-2.27,0-3.39.37-5,1.21-9.93,1.09-14.87-.15-6-1-11.95-1.75-17.91a55.48,55.48,0,0,0-1.47-6.81,62.09,62.09,0,0,0-1.88-6.46,35,35,0,0,0-2.36-4.36c-1.15,1.13-.89,2.54-.64,3.79.73,3.63,1.92,7.19,2.35,10.85.61,5.11.71,10.28,1,15.42,0,.78-.12,1.56-.11,2.34a32.21,32.21,0,0,1-3.27,14.17c-1.19,2.52-2.45,5-3.69,7.52-.47,1-1.19,1.08-2.24.88-4.17-.82-8.38-1.44-12.53-2.31a5.83,5.83,0,0,1-2.94-1.71c-4.7-5.18-9.49-10.3-13.89-15.74-5.8-7.15-11.54-14.4-15-23.11-1.15-2.92-2.35-5.84-3.33-8.83a56,56,0,0,1-2.79-9.94,53.23,53.23,0,0,1,0-10.56c.24-3.53.78-7,1.33-10.53.32-2,1-3.93,1.4-5.92.75-3.53,1.33-7.11,2.18-10.62.73-3,1.74-6,2.62-9.06a8.52,8.52,0,0,0,.22-.87c1.55-8,3.21-16.08,4.63-24.15a101.23,101.23,0,0,0,.58-30.64c-.32-2.43-1.63-4.72-2.41-7.1-.43-1.35-.7-2.75-1.05-4.14Z"/><path class="cls-4" d="M390.15,675a33.15,33.15,0,0,0,.26-3.58c0-1.51.83-2.06,2-1.71a61.39,61.39,0,0,1,7.38,2.58,22.79,22.79,0,0,1,8.22,6.49,11.81,11.81,0,0,1,1.93,3c1.54,3.85,3.67,7.48,4.14,11.75a20.68,20.68,0,0,0,1.78,5.26c.91,2.25,1.86,4.5,2.94,6.67a29.55,29.55,0,0,0,7.4,9.36c2.2,1.84,4.6,3.43,6.86,5.2a9.58,9.58,0,0,1,2.12,2.19c.29.44.11,1.2.14,1.82a4.64,4.64,0,0,1-1.86,0A37.73,37.73,0,0,1,422,715.63a73.52,73.52,0,0,1-8.14-11.3,12.36,12.36,0,0,0-5.46-4.88,37.51,37.51,0,0,1-13.94-11.88,22.87,22.87,0,0,1-2.79-5.93c-.77-2.11-1.21-4.34-1.79-6.52Z"/><path class="cls-4" d="M408.59,668.48a18.38,18.38,0,0,1-.2,2.68,2.05,2.05,0,0,1-3.28,1.47c-3.21-2.16-6.77-4-9.36-6.78s-4.11-6.22-5.87-9.51c-2-3.7-2.06-7.84-2.2-11.91-.1-2.61.81-3.2,3.14-2a32.3,32.3,0,0,1,9.64,7.51,61.19,61.19,0,0,1,5.94,8.47,2,2,0,0,1,.32.64c.73,3.13,1.44,6.26,2.16,9.39Z"/><path class="cls-4" d="M432.64,639a28.45,28.45,0,0,1-.46,4.3c-.83,3-1.68,6.08-2.78,9-2.45,6.54-6.45,11.8-13,14.77a10.42,10.42,0,0,1-2.07.58c-1.21.26-1.72-.25-1.87-1.49a25,25,0,0,1,2.19-13.29c2-4.57,5.66-7.81,10-10.19C427,641.42,429.56,640.44,432.64,639Z"/><path class="cls-4" d="M414.23,683.58a15.26,15.26,0,0,1,4-10.45c3.23-3.56,7.28-5.92,11.47-8.08,2.08-1.07,3.21-.33,2.88,2a53.62,53.62,0,0,1-1.9,9.66,23,23,0,0,1-8,11.41,17.6,17.6,0,0,1-4.83,2.24,2.07,2.07,0,0,1-1.85-.82C415.22,687.3,414.64,685,414.23,683.58Z"/><path class="cls-4" d="M396.56,631.56c.41-3.48.11-7,1.88-10.19.82-1.49,1-1.75,2.25-.57a37.16,37.16,0,0,1,8.48,11.57,17.3,17.3,0,0,1,1.09,10.12,44.19,44.19,0,0,1-1.93,6.68c-.41,1.26-1.47.82-2.07.39-1.77-1.28-3.76-2.48-5-4.18a28.57,28.57,0,0,1-4-7.47C396.5,636,396.73,633.65,396.56,631.56Z"/><path class="cls-4" d="M417,640.46c-2.65,0-3-.25-2.59-2.89a16.84,16.84,0,0,1,6-10.49,33.46,33.46,0,0,1,6.35-4.48,35.21,35.21,0,0,1,7.56-2.54c1.53-.36,2.09.51,1.54,2.06-2.23,6.15-5.39,11.68-10.76,15.71A14.33,14.33,0,0,1,417,640.46Z"/><path class="cls-4" d="M407.22,618c1-3.3,1.89-6.83,3.23-10.17a32.12,32.12,0,0,1,3.77-6.23c1-1.38,2.39-1.06,3,.56.92,2.63,1.85,5.26,2.64,7.94a8.63,8.63,0,0,1,0,2.48,20.56,20.56,0,0,1-5.95,14c-2.36,2.49-3.07,1.79-4.35-.71C408.32,623.65,408,620.93,407.22,618Z"/><path class="cls-4" d="M424.09,616.22c-.07-6.43,3.32-11.05,7.91-15,2.1-1.82,4.14-3.8,6.86-4.66a23.49,23.49,0,0,1,3.77-.58,11.06,11.06,0,0,1,.21,3.41c-1.88,7.48-5.77,13.52-12.84,17.16a28.37,28.37,0,0,1-3.4,1.6C424.77,618.79,424,618.17,424.09,616.22Z"/><path class="cls-5" d="M644.28,454.21c0,2,.13,4,0,6-.35,4.47-1,8.93-1.21,13.4-.18,3.46.09,6.94.1,10.4,0,4.48-.1,9,0,13.43a143.73,143.73,0,0,1-2.55,26.6,70.12,70.12,0,0,1-5.49,17.62c-2.25,4.81-4.24,9.78-7,14.31-2.39,4-5.71,7.34-8.5,11.06-3.89,5.18-9.26,8.68-14.25,12.56a67.61,67.61,0,0,1-10.25,6.25,100.1,100.1,0,0,1-12.39,5.65,124.31,124.31,0,0,1-12.45,3.25c-2,.48-4,.83-6,1.2a6.13,6.13,0,0,1-1.95.13,87.51,87.51,0,0,0-19.34-.51c-3.91.33-7.78,1-11.67,1.53-.15,0-.32-.06-.76-.55.93-.64,1.83-1.33,2.81-1.89,4.32-2.48,8.9-4.57,12.92-7.45,4.87-3.48,9.31-7.56,13.84-11.5a55.8,55.8,0,0,0,4.8-5,58.74,58.74,0,0,0,4.3-5.18,34.68,34.68,0,0,0,2.28-4.4c-1.58-.32-2.6.69-3.49,1.6-2.59,2.64-4.88,5.62-7.67,8-3.88,3.36-8.1,6.35-12.2,9.48-.61.47-1.35.78-2,1.22a32.31,32.31,0,0,1-13.56,5.25c-2.76.43-5.53.78-8.3,1.17-1.06.14-1.56-.39-2-1.37-1.67-3.9-3.51-7.74-5.13-11.66a5.89,5.89,0,0,1-.23-3.4c1.65-6.8,3.2-13.63,5.22-20.33,2.67-8.81,5.45-17.63,10.73-25.36,1.77-2.6,3.51-5.23,5.43-7.72a56.84,56.84,0,0,1,6.66-7.89,52.47,52.47,0,0,1,8.74-5.93c3-1.79,6.26-3.31,9.46-4.81,1.83-.86,3.81-1.4,5.68-2.17,3.35-1.36,6.63-2.89,10-4.16,2.94-1.1,6-1.94,9-2.91.28-.09.56-.19.84-.31,7.53-3.23,15.11-6.37,22.59-9.72A101.11,101.11,0,0,0,637,463.39c1.83-1.62,3-4,4.52-6,.88-1.12,1.89-2.13,2.84-3.19Z"/><path class="cls-6" d="M480.21,585.74a13.52,13.52,0,0,1,2.67.9c2.07,1.19,3.52,1.82,3.4,4.91,0,1.45,0,2.91,0,4.36a1.66,1.66,0,0,0,2.23,1.8c2.43-.75,4.7-2,7.19-2.61.19-.05.31-.38.46-.57l1.13-.8a.4.4,0,0,1,.54.15c.22,1.1-.53,1.64-1.3,2.07A52.75,52.75,0,0,1,489.2,599c-2.36.89-3.95-.3-4.16-2.85a40.37,40.37,0,0,1,0-4.92,2.57,2.57,0,0,0-1.58-2.73c-.74-.34-1.46-.75-2.2-1.1s-1.43-.59-1.53-1.51A.34.34,0,0,1,480.21,585.74Z"/><path class="cls-7" d="M498.07,593.76c1.12-1.46,2.38-2.86,1.93-4.93,1.74-1.15,2.94-.44,3,1.89.2,6.15-1.9,10.86-8,13-2.35,1.48-5.16,1.85-7.58,3.25a14.91,14.91,0,0,0-2.95,2.25c-1.16,1.14.05,1.84.9,2.48,2.66,2,5.54,4.09,7,7,2,3.92,3.49,8.23,3,12.86a13.82,13.82,0,0,1,0,9.93l-.49,1.14c-.94-.26-.72-1.07-.82-1.73,0-3.6,0-7.2,0-10.8a4.67,4.67,0,0,0-.3-2.22,5.36,5.36,0,0,1-.45-2.16c0-.31.11-.71-.08-.91-1.52-1.65-2-3.77-2.64-5.78-1.27-1.39-3-2.34-4-4a3.79,3.79,0,0,0-3-2.2,2.41,2.41,0,0,1-.51-.25c-1.8-1.67-1.68-2.71.55-4.86a16.66,16.66,0,0,1,5.14-3.29c4.77-.64,8.87-2.57,11.58-6.65a8.66,8.66,0,0,0,.8-7.6c-.59.83-.44,1.94-1,2.73S499.41,594.94,498.07,593.76Z"/><path class="cls-8" d="M494.62,641c.1.51-.14,1.1.33,1.54l-.31.73a3,3,0,0,1-3,1.68,4.6,4.6,0,0,0-2.69.8c1,1.05,2.82-.27,3.41,1.42a2.88,2.88,0,0,1-1.33.69,13.08,13.08,0,0,1-3.8.08,2.45,2.45,0,0,1-.6-.18c-1.08-.83-3-.37-3.42-2.2-.18-2.19,1.43-2.58,3-3a7.79,7.79,0,0,1,1.53-.17c1.79-.16,3.63.37,5.4-.34a8.27,8.27,0,0,1,.46-.69C493.92,641.11,494.2,640.87,494.62,641Z"/><path class="cls-9" d="M492.37,647.13c2,0,1.69,1.36,1.33,2.52-1.18,3.86-2.44,7.69-3.68,11.54-1.17.46-1.1,1.7-1.63,2.57-1.7,2.73-3.44,5.43-5.17,8.15a1.68,1.68,0,0,1-.46-1.43,14.9,14.9,0,0,1,3-5.86c2.53-3.1,3.61-6.76,4.54-10.5a9,9,0,0,1,.89-2.49,3.68,3.68,0,0,0,0-4.12C491.51,647.07,492,647.15,492.37,647.13Z"/><path class="cls-10" d="M480.2,675.75c-.68,1.12-1.8.63-2.76.72s-1.47.45-.71,1.26c1.1,1.18.55,2.25-.09,3.21a33.79,33.79,0,0,1-4.89,5.46c-1.44,1.35-2.57,3.08-4.52,3.83l0-.05c0-1.46,1.5-1.9,2-3a2.28,2.28,0,0,1,.38-.38,44.65,44.65,0,0,0,5.55-5.62,1.87,1.87,0,0,0,.29-2.54c-1.28-1.9-1.24-1.92.84-3.25a9.26,9.26,0,0,1,2.78-.17A1.55,1.55,0,0,1,480.2,675.75Z"/><path class="cls-11" d="M480.2,675.75l-1.18,0a9.61,9.61,0,0,0,1.75-3.69,1.91,1.91,0,0,1,2.44-1.64c0,.51,0,1,0,1.54a9.1,9.1,0,0,0-1.49,2.8C481.53,675.56,481,675.77,480.2,675.75Z"/><path class="cls-12" d="M470.61,588.83c2.35,1.64,3.7,4.22,5.76,6.14.39.36.56,1.08,1.3.78s.43-.86.35-1.43c-.31-2.39-1.89-4.17-2.87-6.23l.22-.21a1.21,1.21,0,0,1,1.18.1c1.86,2.2,3.37,4.57,3.35,7.6,0,1,.1,2.13-1.06,2.62s-2.18-.16-3-1a23.11,23.11,0,0,1-2.14-2.88,17.82,17.82,0,0,0-3.29-3.87c-.53-.42-1.41-.71-1.28-1.68A1.68,1.68,0,0,1,470.61,588.83Z"/><path class="cls-13" d="M480.21,585.74l-.42,0c-1.54,0-2.34-1-3-2.15-.31-.54-.49-1.16-.81-1.7s-.71-1.77-1.68-1.44-.64,1.38-.62,2.16a5,5,0,0,0,.79,2.66c.52.8,1.3,1.61.81,2.74l-.12.05a6.23,6.23,0,0,1-2.64-6,22,22,0,0,0,.05-2.44c1.48-2.15,2.91-2.12,4,.35A18.89,18.89,0,0,0,480.21,585.74Z"/><path class="cls-14" d="M470.61,588.83l-1.54,0a.87.87,0,0,1-1.13.06.65.65,0,0,1,0-.84l1.16,0C469.57,588.41,470.26,588.29,470.61,588.83Z"/><path class="cls-15" d="M468,588.08l0,.74a1.56,1.56,0,0,1-1.54.37c-1.79-1.31-3.83-1.43-6-1.37-3,.08-6-.06-8.94,0-2.08.07-3.9-.28-5.34-1.89a1.5,1.5,0,0,0-1.08-.57c-.52.72-.05,1.72-.53,2.47a.59.59,0,0,1-.49.31c-.77-.22-.87-.83-.9-1.5a10.69,10.69,0,0,0-.2-2.64,1.41,1.41,0,0,1,.77-1.6,1.3,1.3,0,0,1,1.72.3q1.67,1.56,3.41,3c1.76,1.37,3.84.9,5.68.6,3.57-.56,7.06.21,10.58.24C466.26,586.62,467,587.62,468,588.08Z"/><path class="cls-16" d="M475.27,588a11.61,11.61,0,0,0-1.53-3,5.74,5.74,0,0,1-.26-4.9c.24-.82,1.27-.54,1.92,0a3.8,3.8,0,0,1,1.15,1.94,6,6,0,0,0,3.24,3.74c1,1.42,2.72,1.52,4,2.33a3,3,0,0,1,1.7,3c-.09,1.58-.05,3.17,0,4.76.07,2.5,1.45,3.49,3.72,2.62s4.51-1.89,6.77-2.84a2.58,2.58,0,0,0,1.72-1.86l.33-.07c2.07.33,1.87-1.43,2.25-2.54.26-.78-.1-2.19.94-2.12s.94,1.47,1,2.41c.38,5.27-2.22,9.21-7.1,11.35-2,.87-3.88,2.18-6.23,2-.14-1,.71-1.05,1.31-1.3,2.15-.92,4.42-1.52,6.38-2.9a10.21,10.21,0,0,0,4.56-7.33,14.93,14.93,0,0,1-8.71,5.24,5.93,5.93,0,0,0-2.31,1.26c-2.49,1.85-4.82,1.05-5.66-2a20.19,20.19,0,0,1-.25-5.49,3.26,3.26,0,0,0-1.9-3.4c-2.61-1.48-5.72-2.67-6.87-6a.92.92,0,0,0-1.15-.63c-.06,1.48.86,2.56,1.58,3.71.38.62,1.09,1.17.43,2Z"/><path class="cls-17" d="M476.35,588.07c-.18-1.59-1.69-2.44-2.16-3.9-.3-.95-1.08-2.3-.12-2.7,1.13-.47,2,.84,2.24,2a4.31,4.31,0,0,0,2.6,2.84c1.75.8,3,2.44,5,2.76.87.14.85,1,.85,1.68,0,1.9-.06,3.81,0,5.7.09,2.8,1.34,4.11,3.51,3.85.13,0,.3,0,.37,0,1.72-1.7,4.08-2,6.13-3,1.32-.62,2.79-1,3.93-2.14s2.16-1.86,2.25-3.7c1.16,2.67.48,5.32-2,8a16.42,16.42,0,0,1-6.69,3.94c-1.11.39-2.46.4-3.28,1.48-1.85.71-3.26,2.15-5,3a10.86,10.86,0,0,0-1.17,1c-1.3,1.17-.94,2.74.83,3.62h0c1.48.24,2.34,1.4,3.4,2.28,1,1.58,2.73,2.4,3.84,3.85.84,1.23,0,2.8,1,4.11a14.77,14.77,0,0,1,2,2.71c.17.65-.17,1.4.41,2,.49,3.45-.23,6.89,0,10.34.07,1.23.31,2.53-.34,3.72l0,.77c-2,.62-2.21.54-2.77-1.23a7.2,7.2,0,0,0-1.45-2.2c-1-1.28-.9-2,.35-3,.33-.27,1-.53.67-1-.92-1.2-.53-2.18.14-3.28.36-.6,0-1.24-.42-1.75a8.7,8.7,0,0,1-1.67-4c-.48-2.81-2-5.32-2.37-8.18-.2-1.35-1.72-1.94-3-2.42-.54-.2-.86.35-1.2.74-1.25,1.42-2,1.3-2.6-.51a39,39,0,0,1-1.25-4.78c-.47-2.36-.49-2.36-2.78-2.25-.88-2.4-2.17-4.63-2.79-7.15a6.81,6.81,0,0,0-1.71-2.45h0a1,1,0,0,1-.19-1.32c.89-.91,1.46,0,2.12.37.33.17.64.54,1,.24s.17-.69.07-1a9.86,9.86,0,0,0-2.11-3.35c-.28-.35-.68-.68-1.13-.34s-.11.69.06,1c.53,1,1,2,.1,3-1,.68-1.55-.24-2.15-.59a13.87,13.87,0,0,1-4-3.2c1.53-.67,3.12-1.27,3.37-3.27-.4-.69-2.13.31-1.75-1.37H468l1.09,0a14,14,0,0,1,5.24,5.46,20,20,0,0,0,2.44,3.1,1.73,1.73,0,0,0,1.92.44c.77-.23.71-.92.77-1.56.29-3-1.31-5.23-2.77-7.55A7.08,7.08,0,0,1,476.35,588.07Z"/><path class="cls-18" d="M483.6,612.45c-1,.14-1.8-.21-1.84-1.29,0-.93-.66-2.16.87-2.65.45-.15.77-.64,1.31-.64a9.65,9.65,0,0,1-.79,1C481.77,610.27,482.51,611.37,483.6,612.45Z"/><path class="cls-18" d="M487,614.73c-1.33-.48-2.2-1.63-3.4-2.28C485.38,612.26,486.29,613.36,487,614.73Z"/><path class="cls-18" d="M475.61,608.27c1.9-1.22,2.58-.89,3.05,1.31.43,2,1,4,1.49,6,.11.45.26.91.83.88s.56-.41.71-.78c.66-1.59,1.52-1.66,2.91-.64s2,2.35,2.64,4.08c1.31,3.5,1.31,7.49,3.8,10.56a1.7,1.7,0,0,1-.15,2.68c-.91.7-.53,1.25.15,1.78,1.11.87.71,1.34-.37,1.8-1.73.73-1.8,1.3-.45,2.72a3.59,3.59,0,0,1,1.43,2.53c0,1.61,1.44.7,2.21,1-.44,1-1.35.72-2.13.74-1.31,0-2.63,0-3.94,0-1-.45-2.1-.48-3.07-1-1.6-.84-1.77-1.55-.63-2.94.35-.42,1-.77.71-1.42s-1.06-.56-1.68-.55c-.93,0-2,.4-2.44-.85s.55-1.91,1.46-2.57,2.56-1.26,2.16-3.1c-.78,0-.76.69-1,1.07a1.9,1.9,0,0,1-2.25,1c-.94-.25-1.2-1.05-1.31-1.9a11.93,11.93,0,0,1,.24-2.46c.17-2.14-.51-3-2.64-3-2.86-.08-5.72,0-8.57,0a2.28,2.28,0,0,0-2.45,1.68,2.63,2.63,0,0,1-1.33,1.79c-1.94.73-2.2,2.4-2.15,4,.13,4.14-.7,8.21-.85,12.32a6.46,6.46,0,0,1-.54,2.21c-.13.32-.4.74.09,1,.33.16.6-.1.83-.31.82-.78,1.6-1.93,2.88-1s.37,2-.12,3,.21,1.55.61,2.25c.61,1.07.69,2-.81,2.26a7.52,7.52,0,0,1-4-.87c-2-1.27-2.24-3.39-2.4-5.33-.28-3.33-1-6.62-.84-10,.11-1.76-.21-3.55.52-5.26a4.63,4.63,0,0,0,.24-2.06,13.18,13.18,0,0,1,2.64-8.3,6.59,6.59,0,0,0,.78-1.3,13.75,13.75,0,0,1,6.05-6.7c1-.61,1.82-1.56,2.81-2.24a8.32,8.32,0,0,1,2.16-1.11C474.4,610.9,474.64,609.21,475.61,608.27Z"/><path class="cls-19" d="M483.21,670.37c-1.21.4-2.31,1.14-2.21,2.45a2.57,2.57,0,0,1-2,2.88l-3,0c-1.87.85-2.06,1.35-.78,3a1.77,1.77,0,0,1-.19,2.76c-.93.9-1.53,2.15-2.79,2.71a3.32,3.32,0,0,0-2.56.28c-1.5.57-1.88.29-2.05-1.34s-.7-1.83-2.09-1a25.25,25.25,0,0,1-2.62,1.53,1.9,1.9,0,0,1-2.85-1c-.81-1.79-1.6-3.59-2.47-5.35a3.19,3.19,0,0,1,.18-2.94,3.38,3.38,0,0,0,.13-3.32,4.64,4.64,0,0,1-1.42,4.7,4.94,4.94,0,0,0-1,2.42c-.25,1-.65,1.93-1.92,2,.94-3,2.05-5.95,2.76-9,.48-2,1.3-4.06,1-6.24a5.22,5.22,0,0,1,.75-3.44c.55-.57.34-1.3.4-2a2.2,2.2,0,0,1,1.23-1.77,3.5,3.5,0,0,1,2.49.07c.7.66,1.14,1.69,2.44,1.46a1.16,1.16,0,0,1,1.28.93,1.27,1.27,0,0,1-.61,1.48c-.7.48-1.43.92-1,2a2.21,2.21,0,0,0,2.45,1.42,40.74,40.74,0,0,1,9.3,0c2.47.18,3.06-.34,3.93-2.67.59-1.59,1.32-3,3-3.79a1.6,1.6,0,0,0,.85-1.58,11.21,11.21,0,0,0-.15-2.65c-.11-.63-.41-1.43,0-1.87,1.34-1.6,1.92-3.68,3.4-5.18h4.19c1.16.43,1.63,2.3.86,3.69-1.47,2.68-1.78,5.74-2.79,8.57a16,16,0,0,1-2.69,4.69A25.57,25.57,0,0,0,483.21,670.37Z"/><path class="cls-20" d="M464.93,654c1.34-.15,1-.94.47-1.55-1.12-1.22-1.71-2.33-.18-3.69a1,1,0,0,0-.13-1.64c-.7-.55-1.23-.09-1.68.3s-.52.86-.84,1.24a1.28,1.28,0,0,1-1.73.17.74.74,0,0,1-.33-1.13c1.77-2.21.66-4.91,1.32-7.33.89-3.24.1-6.67.76-10,.17-.83.36-1.52,1.19-1.71a2.69,2.69,0,0,0,2.17-2.33c.3-1.4,1.2-1.74,2.52-1.72,2.85.06,5.7,0,8.56,0,3.08,0,4,1.09,3.47,4.12a9.77,9.77,0,0,0-.3,1.85c0,.77.18,1.53,1.2,1.64s1.34-.49,1.67-1.23c.26-.58-.08-1.55.93-1.65.49,0,.8.39,1,.8a1.89,1.89,0,0,1-.45,2.27c-.79.6-1.35,1.5-2.41,1.8A1.41,1.41,0,0,0,481,636c.23,1.09,1,.63,1.66.53a10.84,10.84,0,0,1,1.51,0,1.44,1.44,0,0,1,1.53.91c.24.67-.24,1.19-.72,1.62-1.78,1.58-1.74,1.9.49,2.73a6,6,0,0,1,2.33,1.2h-1.53c-1.5-.23-3.08.07-4.5-.7a1.12,1.12,0,0,1-.45-.81c.09-1.45,0-2.62-2-2.55-.74,0-.91-1-1.05-1.64a23,23,0,0,1-.16-3.42,2,2,0,0,0-2-2.09c-2.33-.09-4.7-.38-7,.24a2.43,2.43,0,0,1-2.75-.67,1.37,1.37,0,0,0-1.86-.42.78.78,0,0,0-.17,1.18c.43.6.47,1.85,1.61,1.49s1.31.37,1.53,1.1c.53,1.78-.15,3.52-.24,5.27a.74.74,0,0,1-.54.72c-.42.07-.69-.26-.86-.61a12.18,12.18,0,0,1-.41-1.81,24.76,24.76,0,0,0-.71,5.4c0,.57-.06,1.27.5,1.56,3.63,1.88,7.41,2.88,11.49,1.63a1.88,1.88,0,0,0,1.38-1.65c.08-.51.07-1,.14-1.52.39-3,.71-3.17,3.34-1.61.9,1.07.92,2.64,2,3.58a1.94,1.94,0,0,0,2,1.16c.54,0,1,.06,1.09.74a5,5,0,0,0-3,1.72c-.8,1-1.8.42-2.64-.61-.63,2.1-.35,3.64,1.06,5,.65.61,1.3,1.27.9,2.3a1.81,1.81,0,0,1-3.19.5,3.32,3.32,0,0,0-3.83-1.3c-1.84.39-3.65-.32-5.49-.22-1.65.08-3.23,0-3.82,2a.81.81,0,0,1-1.06.56A9.16,9.16,0,0,1,464.93,654Z"/><path class="cls-18" d="M465.69,657.43c.06,0,.15,0,.16-.1,1.37-4.38,4.88-2.82,7.81-2.73a7.93,7.93,0,0,0,2.23,0c1.77-.46,3.36-.57,4.27,1.55.45,1,1.31.76,2,.16a1.13,1.13,0,0,0-.06-2c-1.83-1.24-2.16-3-1.94-5,.06-.57.22-1.26.76-1.45.74-.26.59.58.84.95.73,1.06,1.64.62,1.9-.19.57-1.81,1.67-1.55,3-1.1H487a3.09,3.09,0,0,0-.78,2.26,1.28,1.28,0,0,1-1,1.58c-1.34.4-1.48,1.5-1.19,2.61a11.15,11.15,0,0,1,.3,2.81c0,1.29.16,2.45-1.71,2.77-1.13.19-1.56,1.58-2,2.64-1.39,3.47-2.1,4-5.66,3.58a25.16,25.16,0,0,0-7.89,0,2.75,2.75,0,0,1-3.32-1.57c-.49-1.14-.76-2.23.95-2.6.64-.14,1-.55.8-1.24a.9.9,0,0,0-1.24-.58c-2,1.1-1.7-.65-2.07-1.59C463.3,657.48,464.65,658.17,465.69,657.43Z"/><path class="cls-21" d="M481.69,642.18c1.55.09,3.19-.34,4.57.76-1.18.59-2.84.72-2.67,2.67-1.86-.47-1.9-1.93-1.9-3.43Z"/><path class="cls-22" d="M453.52,680.28c.83-.7,1.63-1.4,1.52-2.65a1.2,1.2,0,0,1,.2-.71c1.45-2.13,3.25-4.13,2-7.14,1.74,1.3,2.16,2.67,1.22,4.34a4,4,0,0,0,.3,4.56,27.16,27.16,0,0,1,1.65,3.82c.44,1,1.1,1.5,2.22.87a13.76,13.76,0,0,0,2.59-1.57,1.89,1.89,0,0,1,2.41-.48c.79.5.66,1.16.48,2-.31,1.49.57,1.1,1.46.81s1.76-1.66,2.63,0c-.36,1.48-1.74,2.07-2.67,3.06h0a21.44,21.44,0,0,1-3.08,3,33.34,33.34,0,0,0-4.33,3.26c-3,3-6.72,5-10.34,7.11a45.52,45.52,0,0,1-6.91,3.72c-2.5.88-4.88,2.19-7.52,2.71-1.64.31-3.18,1.12-4.89,1.13-.54,0-1.28.3-1.57-.3s.4-1,.7-1.45a5,5,0,0,1,1.5-1.42c2.74-1.59,4.66-4.13,7.17-6a29.83,29.83,0,0,0,8.65-10.49C450.29,685.64,452,683,453.52,680.28Z"/><path class="cls-23" d="M459.6,658.2a3,3,0,0,0-.79,2.19c.06.56.05,1.16-.75,1.22,0-.76,0-1.53,0-2.3a1.87,1.87,0,0,1,1.53-1.88A.55.55,0,0,1,459.6,658.2Z"/><path class="cls-11" d="M466.42,690.18a8.42,8.42,0,0,1,3.08-3c-.22,1.43-1.72,1.88-2.31,3Z"/><path class="cls-11" d="M469.5,687.16c.6-1.27,1.93-1.91,2.67-3.06.65-.68,1.29-1.37,2-2,1.09-1.08,2.05-2.08.26-3.46-.68-.52-.44-1.58-.22-2.34s1.17-.44,1.81-.53c-.93.94-1.59,1.8,0,2.8a1.38,1.38,0,0,1,.16,1.9C474.29,683,472.32,685.5,469.5,687.16Z"/><path class="cls-24" d="M459.6,658.2l0-.77h0a6.4,6.4,0,0,1,3-.51c.64,0,1.39-.08,1.54-.84s-.6-1-1.2-1.17a2.48,2.48,0,0,1-1-.51c-2.95-.86-3.29-1.51-3.83-4.4-.84-4.48-.7-9-.74-13.48a37.2,37.2,0,0,1,1.75-11.74c.89-2.72,1.92-5.77,4.82-7.61,1.67-1.06,2.72-3,4.66-3.94a5.72,5.72,0,0,1,1.7-.79.59.59,0,0,1,.8,0,20.26,20.26,0,0,1-4.2,3.31,8.15,8.15,0,0,0-3.34,3.46c-1.07,2.19-2.64,4.09-3.5,6.36-.61,1.62-1.51,3.2-1.15,5s-.75,3.64-.79,5.53a99.16,99.16,0,0,0,.9,11.94c.17,1.71.3,3.82,2.22,5.09,1.23.82,2.55.38,3.76.83.95,1,.75,2.23.76,3.43-.78,1.88-2.28.56-3.44.76Z"/><path class="cls-25" d="M471,597.22l0,1.5c-1.56-1.1-3.14-2.15-4.65-3.3a4.23,4.23,0,0,0-2.23-1.25,19,19,0,0,1-6.17-1.28,14.82,14.82,0,0,0-3.33-.43,20.88,20.88,0,0,1-8.78-2.14c-.63-.76-1.27-1.51-1.91-2.27l.43,0a1.19,1.19,0,0,1,1.72.13c2.76,2.93,6.42,3.14,10,3.13,3.13,0,5.86,1.32,8.75,2.14,2,1.31,3.68,3.15,6.1,3.8Z"/><path class="cls-25" d="M471,612.46l-.8,0c.22-1,1.22-1,1.87-1.37,2.44-1.17,2.92-2.36,2-4.75-.93-2.58-2-5.1-3.11-7.59,1.26.74,2.28,1.54,2.32,3.28,0,1.51,1.27,2.67,1.76,4.09a5.87,5.87,0,0,1,.49,2.18,3.68,3.68,0,0,1-2.4,3.24C472.49,611.84,471.76,612.14,471,612.46Z"/><path class="cls-23" d="M461.87,654.39a6.26,6.26,0,0,1,.75,0c1.09.11,2.32.21,2.23,1.66-.08,1.29-1.18,1.43-2.26,1.39s-2,0-3,0C460.32,656.39,462.38,656.35,461.87,654.39Z"/><path class="cls-26" d="M464.91,593.42a8.49,8.49,0,0,1-4.18-.76c-2.87-1.38-6-.65-9-1.12a9,9,0,0,1-5.67-2.82,2.11,2.11,0,0,0-1.63-.7v-3.8a1.89,1.89,0,0,1,1.59.92c1.84,2.29,4.29,2.28,6.88,2.19,3.05-.11,6.1,0,9.14-.06a5.16,5.16,0,0,1,4.44,1.56c0,.54.31.68.87.7,1.87.06,1.81.16,1,1.91C467.56,593,466.6,593.72,464.91,593.42Z"/><path class="cls-26" d="M471,597.22c0-1,.23-2-.68-2.83-.5-.46-.73-1.12-.11-1.66a1.33,1.33,0,0,1,1.89.19,13.34,13.34,0,0,1,2.67,4.44,1.12,1.12,0,0,1-.37,1.36,1,1,0,0,1-1.37-.23,3.56,3.56,0,0,0-2-1.27Z"/><path class="cls-22" d="M465.22,677.32c-.33.86-.81,2.1-1.84,2-1.2-.14-1.21-1.63-1.41-2.62-.12-.6.27-1.65,1-1.53A2.62,2.62,0,0,1,465.22,677.32Z"/><path class="cls-21" d="M481.69,642.18a2.67,2.67,0,0,1-2.47-1.06,13.91,13.91,0,0,0-.57,3.84c.15,1.53-.8,2.12-2,2.53-2.7.87-5.42.28-8.06-.11-1.28-.18-2.31-1.61-3.87-1.62-.16,0-.44-.47-.46-.74a23.3,23.3,0,0,1,1-8.43c1.4,1.08.31,2.71,1.4,3.73-.21-2.21,1.28-4.38-.14-6.74-.88,1.66-1.54,1.47-2-.18a1.52,1.52,0,0,0-.43-.62c-.67-.7-1.13-1.57-.31-2.31a1.78,1.78,0,0,1,2.83.3c.79,1.16,1.52.83,2.68.58a24,24,0,0,1,7.56-.08,2,2,0,0,1,1.82,2.29,19.37,19.37,0,0,0,0,2.85c.09,1.14-.07,2.46,1.93,2,.89-.18,1.71.35,1.25,1.66a7.84,7.84,0,0,0-.15,2.07Z"/><path class="cls-27" d="M487.41,720.06a1,1,0,0,1-.32-1c.54-2.62-1.67-4.23-2.33-6.4-.18-.61-.68-.39-.83.12a4.32,4.32,0,0,0-.1,1.25c0,2.8,1.23,5.38,1.45,8.14.36,3.32-.29,6.28-3,8.56a5.55,5.55,0,0,1-3.38,1.47c-5.27.22-10.56.76-15.81-.3a38.27,38.27,0,0,0-4.5-1.08.39.39,0,0,1,.15-.55,6.14,6.14,0,0,1,4.56.14c4.38,1.58,8.87.91,13.33.86a3.62,3.62,0,0,1,.86-.16c2.94-.17,4.92-1.62,5.71-4.17a12.09,12.09,0,0,0,.14-8.72,13.09,13.09,0,0,1-.68-5.28,1.92,1.92,0,0,1,1.56-1.94c.95-.14,1.24.71,1.58,1.43,1,2.07,2.51,4,2.09,6.5A1.49,1.49,0,0,1,487.41,720.06Z"/><path class="cls-27" d="M483.15,694.15a2.82,2.82,0,0,0,1.77-.41c.81-.8,1.92-.76,2.9-1.07,7.28-1.2,14.24-3.59,21.26-5.76a47.5,47.5,0,0,0,11.81-5.53c3.12-2,6.26-4,8.72-6.91.14-.15.44-.15.66-.23.55.89-.2,1.27-.67,1.77-3.62,3.83-8.2,6.34-12.55,9.17a19.9,19.9,0,0,1-7.15,3,13.82,13.82,0,0,0-4,1.37,7.86,7.86,0,0,1-3.3.71,3.22,3.22,0,0,0-2.05.47,5,5,0,0,1-2,.7c-4.28.7-8.37,2.16-12.58,3.16a12.51,12.51,0,0,0-4,1.49,3.24,3.24,0,0,1-2.74.48.88.88,0,0,1-.44-.37A13.82,13.82,0,0,0,483.15,694.15Z"/><path class="cls-27" d="M457.92,709.62c0-.15,0-.29-.05-.44,0-.6.56-.89.76-1.39l3.6-3.23c2.08-1.23,4-2.73,6.11-3.92A25.7,25.7,0,0,1,474,698c1.66-.46,2.93-1.94,4.8-1.78l.06.1c-.57,1.37-2,1.54-3.1,2.05s-2.49,1.11-3.74,1.66l-.45.23c-4.41,2.34-8.67,4.9-12.11,8.61C459,709.26,458.63,709.79,457.92,709.62Z"/><path class="cls-27" d="M535,668.19c.12-1.39,1.3-2.23,1.93-3.32,1.29-2.2,1.15-4.87,2.71-6.93.75-1,.46-2.34.57-3.5.37-3.67.66-7.35-.18-11a5.71,5.71,0,0,0-2.37-3c-1.45-1.16-2.89-2.6-5.1-2.56a13.66,13.66,0,0,1-3.66-.8,50.53,50.53,0,0,0-5.6-1,14.64,14.64,0,0,1-10.19-6.51c-.4-.59-.79-1.31,0-1.93s1.34-.1,1.92.31a4.25,4.25,0,0,0,4.56.27,27.78,27.78,0,0,0,5.32-3.21c1.44-1.47,3.27-1.51,5.15-1.49,3.13,0,3.23-.09,3.1-3.22,0-1-.23-1.89-.34-2.84a18.9,18.9,0,0,1-.06-5.67,10,10,0,0,0-1.36-7c.36-1.73,1-2.08,2.38-1.48a19.31,19.31,0,0,1,8.76,8c.14,1.23,1.88,1.74,1.46,3.23-1.11,0-1.12-1.07-1.68-1.61s-.81-1.33-1.43-1.84a23,23,0,0,0-3.49-4.07,5.89,5.89,0,0,0-1.76-1.23c-.53-.22-1.14-.64-1.7-.3-.73.45-.06,1.08,0,1.61a24.24,24.24,0,0,1,.08,2.69,107.19,107.19,0,0,0,.38,12c.22,1.79-.55,2.67-2.33,2.9-1.13.14-2.28,0-3.41.07-1.72-.09-2.81,1.24-4.09,2s-2.6,1.47-3.84,2.31-2.75.7-4.19.73c-.39,0-.93-.15-1.06.39-.08.37.31.62.57.86a14.63,14.63,0,0,0,10.32,4.27,4,4,0,0,1,1.25,0c3.3,1,6.83,1.25,9.85,3.16a5.45,5.45,0,0,1,1.85,1.91c2.89,3.71,2.77,8,2.14,12.26-.2,1.36-.09,2.75-.42,4.09a44,44,0,0,1-3.7,9.64C536.91,667.2,536.43,668.38,535,668.19Z"/><path class="cls-27" d="M541.45,610.9l2.56,3.56c1.7,2.44,2.28,5.45,3,8.14,1.06,4.29,2.25,8.65,2.48,13.16.15,2.84.89,5.65,1.16,8.5a88.12,88.12,0,0,1,0,16.16,49.21,49.21,0,0,1-2.08,11.06c-.9,2.73-.78,5.84-2.73,8.21-.5.06.23,1.55-1,.83a3,3,0,0,1,.2-2.93,19.3,19.3,0,0,0,1.34-4.08c1.55-4.68,1.82-9.62,3-14.38.6-2.44.1-5,.19-7.54a24.19,24.19,0,0,0-1.23-9.73c-.48-1.24-.19-2.62-.21-3.94a17.19,17.19,0,0,0-1.14-6.87,14.29,14.29,0,0,1-.64-3.53A29.18,29.18,0,0,0,545,622c-.73-2-1.13-4.08-2-6.08-.55-1.34-1.73-2.34-1.91-3.83A1.33,1.33,0,0,1,541.45,610.9Z"/><path class="cls-27" d="M517,720l-.72,0c-.17-1.17.89-1.52,1.43-2.26-1.38,1.85-3.67,1.07-5.4,1.92-.4-1.38-1.57-1-2.52-1.09.18-1.24,1.52-.47,2-1.18a3.49,3.49,0,0,1,2.54-1.47c1.48-.19,2.75-1.14,4-1.78a37.75,37.75,0,0,0,14.56-12.3c2.37-3.37,4.26-7,6.76-10.3.8-1.08,1.4-2.29,2.31-3.3l.23.1a3,3,0,0,1-.9,2.43c-1.07,1-.89,2.69-2,3.65-3,5.09-6.28,10-10.59,14.22-1.58,1.54-3.31,3-4.76,4.66-.31.34-1,.39-1.49.53-.79.22-1.44.45-.71,1.44.49.68-.23.84-.56,1.23C520,718,518.08,718.5,517,720Z"/><path class="cls-27" d="M545.07,680.76l.75-1.07c.14,2.35-1.58,4-2.15,6.15l-.21-.18c-.68-1.91.72-3.22,1.39-4.73Z"/><path class="cls-27" d="M543.67,685.84c.05,1.14-.95,1.69-1.45,2.52l-.05,0a1.73,1.73,0,0,1,1.44-2.53Z"/><path class="cls-27" d="M535,668.19c1.35-.8,1.93-2.14,2.59-3.48a39.7,39.7,0,0,0,3.57-12.93c.34-2.82-.34-5.43-.46-8.14-.07-1.4-1.53-2-1.82-3.2a.86.86,0,0,1,.48-.29,1.86,1.86,0,0,1,1.8,1.5,21.81,21.81,0,0,1,1.6,7.3,37.18,37.18,0,0,1-1.91,11.25c-2.27,7-6.77,12.81-12.32,17.72a79.1,79.1,0,0,1-9,6.55c-.81.54-1.65,1-2.61.26,3.59-2.47,7.56-4.43,10.69-7.53.92-.92,2.32-1.47,2.61-3l2.57-3.16A8.3,8.3,0,0,0,535,668.19Z"/><path class="cls-27" d="M512.29,719.68a3.52,3.52,0,0,1,3-1.1,1.44,1.44,0,0,0,1.66-.72c.46-.86,1.17-.8,2.27-.43a6.39,6.39,0,0,0-3,2.59,2,2,0,0,0-1.08.56,33.68,33.68,0,0,1-10,5.28,21.58,21.58,0,0,0-2.66,1.37c-1.94-.05-3.63.8-5.37,1.47a45.83,45.83,0,0,0-8,.67c-.78.11-1.94.91-2.1-.85-.18-1.92.47-3.1,2-3.07,2.52,0,5.13.17,7.43-.79,2.52-1.06,5.49-.4,7.75-2.29.34-.29,1-.14,1.57-.19a.68.68,0,0,1,.79,0c-1.25,1.6-3.09,2-4.9,2.55a64.53,64.53,0,0,1-11.45,2,2,2,0,0,0-1.81.89.48.48,0,0,0,.5.47c3-.11,6.12.27,8.95-1.24a2.86,2.86,0,0,1,1-.34c4.06-.53,7.54-2.6,11.15-4.29,1.38-.65,3-1,3.94-2.45-.78.77-1.61,1.33-2.71.73a.34.34,0,0,1-.06-.49Z"/><path class="cls-27" d="M511.21,720v.38c-1.35,1.72-3.1,2.39-4.68,1.79l-.75,0C507.78,721.94,509.09,720,511.21,720Z"/><path class="cls-27" d="M458.63,730.48c-1-.12-1.27-.57-.71-1.44a5,5,0,0,1,2.15-1.78h0a21.59,21.59,0,0,0,2.16-1.9c.93-.77.77-1.3-.44-1.69a13.29,13.29,0,0,0-3.39-.22,7.38,7.38,0,0,1-2.65-.17c-3.3-.54-4.45-3.06-2.53-5.84.54-.8.88-1.68,1.43-2.45a.46.46,0,0,1,.51.15,3.05,3.05,0,0,1-.81,3.86c-1,.86-.69,1.66.62,2,2.36.55,4.56,1.55,7.09,1.66s3.17,2.15,1.5,4.18a10.47,10.47,0,0,1-1.81,1.45c-.28.22-.6.5-.48.89s.56.39.91.45c4.66.79,9.28,2,14.09,1.55a1.19,1.19,0,0,1,.75.44c-.67.58-1.48.36-2.23.33-3.2-.1-6.46.47-9.6-.39C463,730.93,460.91,730.25,458.63,730.48Z"/><path class="cls-27" d="M488.88,723.28c-.68-.08-1.14-.33-.88-1.14a4.23,4.23,0,0,0-.53-3.18c.54-2.82-1.71-4.72-2.39-7.13-.09-.3-.41-.71-.81-.55a1.67,1.67,0,0,0-1.1,1.32,12.7,12.7,0,0,0,.63,5.45c1.12,3.15,1.36,6.19-.31,9.2a.39.39,0,0,1-.54-.1,9.14,9.14,0,0,1-.52-4.24,43.47,43.47,0,0,0-.17-6.46,6.63,6.63,0,0,0-.59-2.6,3.47,3.47,0,0,1-.32-2.62c.35-1.22.94-2.26,2.38-2.35s1.9.81,2.33,1.87c.86,2.1,2.07,4,2.75,6.21A9.71,9.71,0,0,1,488.88,723.28Z"/><path class="cls-27" d="M477,731.58l-.77,0a2,2,0,0,1,1.9-2.48,33,33,0,0,1,3.7-.54c.66,1.29-.59,1.5-1.22,1.8-.94.46-1.94.83-2.92,1.23Z"/><path class="cls-27" d="M477.71,731.56a3.07,3.07,0,0,1,2.23-1.35A3,3,0,0,0,482,728.7c.27-.56.3-1.28,1.06-1.47l.4,0C483.08,729.65,480.59,731.5,477.71,731.56Z"/><path class="cls-27" d="M455,715l-.38,0c-.06-1.45,1.35-2,1.9-3.11.39-.78,1.14-1.36,1.37-2.26a48,48,0,0,1,9-7.35,19.67,19.67,0,0,1,4.71-2.38c.76,1.17-.07,1.67-.94,2a29.22,29.22,0,0,0-4.26,2.22c-3.2,1.92-5.48,4.81-8.17,7.26-1.08,1.1-1.77,2.53-3,3.52Z"/><path class="cls-27" d="M455.75,723.28c1.84,0,3.68,0,5.52,0,.88,0,1.82.3,2.07,1.11s-.67,1.13-1.27,1.48-1,1.34-2,1.38c.59-.66,1.14-1.35,1.77-2,.8-.77.57-1.07-.39-1.39a14.35,14.35,0,0,0-3.51-.28C457.21,723.56,456.39,723.91,455.75,723.28Z"/><path class="cls-27" d="M460.07,727.26,457.92,729C458.1,727.8,459,727.46,460.07,727.26Z"/><path class="cls-27" d="M457.9,711.39c.1-.27.13-.66.32-.8,2.81-2.06,4.77-5.05,7.88-6.83a28.84,28.84,0,0,1,4.62-2.38c.87-.3.87-.83.89-1.49l0,0c1.89-.39,3.47-1.51,5.26-2.15,1.34-.48,2.55-1.3,4-1.34a1.52,1.52,0,0,0,.69-.19c3.4-2,7.37-2.14,10.95-3.42,3.31-1.19,7-1.14,10.05-3,2.6.09,4.59-1.8,7.1-2.1a18.12,18.12,0,0,0,7.29-2.95c2.33.28,3.54-1.74,5.28-2.65,3-1.56,5.41-3.93,7.85-6.19a22.33,22.33,0,0,0,5.49-6.91,13.79,13.79,0,0,1,2-2.62c1.32-1.76,1.43-4,2.71-5.65a3.86,3.86,0,0,0,.53-2.57c0-2.88,1.44-5.46,1.49-8.38a26.21,26.21,0,0,0-1.67-8.31,1.53,1.53,0,0,0-1.33-1.06c-1.75-2.6-4.5-3.44-7.3-4.13a23,23,0,0,0-7.61-.9,2.6,2.6,0,0,1-1.84-.61,3.19,3.19,0,0,0-2.14-.81c-1.71.09-2.53-1.21-3.49-2.19a1.41,1.41,0,0,1,1.2-2.28c2.43-.05,4.25-1.42,6.19-2.58a22.26,22.26,0,0,1,4.31-2.49c1.31,0,2.63.05,4,0a2.9,2.9,0,0,0,1.88-1c.67-.7-.13-1.16-.25-1.74a22.38,22.38,0,0,1-.32-3.92c0-3.59,0-7.19,0-10.78,0-1.81.4-2,2-1.08a10,10,0,0,1,4.67,5,3.56,3.56,0,0,0,.89,1.12c1.4,1.74,1.82,4,3.08,5.82a2,2,0,0,1,.39.81c.35,3.87,2.37,7.4,2.31,11.36,0,1.39,1.12,2.39,1.18,3.88.08,1.72.28,3.46.23,5.18a15.8,15.8,0,0,0,1.26,6,4.69,4.69,0,0,1,.18,1.59c0,3.06,0,6.12,0,9.18a24.12,24.12,0,0,1-1.31,8,17.77,17.77,0,0,0-.21,3c-.42,3.23-1.73,6.25-2.3,9.48-.25,1.43-1.44,2.8-1.25,4.49h0c-1.82,3.54-2.91,7.42-5.05,10.81s-3.86,6.81-6.34,9.92c-1.95,2.44-3.84,5-6,7.19a8.22,8.22,0,0,1-3.24,2.53c-1.74.58-3.21,1.92-4.87,2.79s-3.5,2.07-5.54,2.38c-1,.14-1.57.49-1.73,1.47-2.36,0-4.81-.37-6.76,1.55-.24.24-.79.2-1.19.27-1.44.27-3,.24-4.11,1.42-.08.09-.2.2-.3.19-3.85-.28-7.09,2.81-11,2-.08-.22-.29-.49-.23-.67,1.11-3.06-.43-5.8-1.39-8.44a39.16,39.16,0,0,0-2.09-4.21,1.61,1.61,0,0,0-2.62-.13,3.11,3.11,0,0,0-.6,3.51c1.32,2.62,1.22,5.47,1.05,8.21-.12,1.92.47,3.79.09,5.68A1.93,1.93,0,0,1,482,728.7a7,7,0,0,1-3.37.73c-1.46-.12-2,.93-2.41,2.12-2,0-3.95,0-5.93,0a7.19,7.19,0,0,1-4.74-1.08c-1.08-.8-2.45-.26-3.68-.36-.63,0-1.3-.08-1.53-.71s.39-1,.81-1.45c.69-.64,1.66-.85,2.23-1.72,1.11-1.7.67-3.35-1.26-3.17-2.95.27-5.29-1.57-8.06-1.64-.82,0-1.39-2.29-.63-2.56,2.15-.76,1.42-2.44,1.57-3.87h0A11.44,11.44,0,0,0,457.9,711.39Z"/><path class="cls-27" d="M502.58,689.78a3.43,3.43,0,0,1-2.89,1.47c-2.56,0-4.69,1.65-7.13,1.86-2.74.23-5.06,2.07-7.9,1.78a2.1,2.1,0,0,0-1.54.83,2.63,2.63,0,0,1-1.55.84c-2.77.33-5.17,1.63-7.56,2.91a5.26,5.26,0,0,1-2.42.4c2.23-1.56,5-2,7.22-3.57,2.4.41,4.08-1.42,6.18-2,3.35-.95,6.76-1.65,10.11-2.64A50.79,50.79,0,0,1,502.58,689.78Z"/><path class="cls-27" d="M528.53,624.57c-2.61,1.81-5,3.94-8.19,4.81a5,5,0,0,1-.51.16c-1.09.2-2.59-.31-2.8,1.47-.1.84,2.34,2.56,3.54,2.54,1,0,1.93,0,2.51,1,.28.5.8.5,1.27.45a25.53,25.53,0,0,1,8.14.82,11.94,11.94,0,0,1,6.38,3.26,1.87,1.87,0,0,1,.47,1.31l-.42.05a9.42,9.42,0,0,0-5.91-3.27,6.45,6.45,0,0,1-1.91-.41,15.42,15.42,0,0,0-5.94-1.09c-4.11-.21-7.41-2.22-10.24-5.09-.25-.26-.51-.55-.37-1s.55-.4.91-.41a5.56,5.56,0,0,1,1.08,0c2.87.46,5-1.2,7.18-2.55,1.53-.93,2.84-2.33,4.78-2.48.13.08.17.16.14.24S528.56,624.57,528.53,624.57Z"/><path class="cls-27" d="M528.53,624.57l0-.37c1.14,0,2.28,0,3.41-.05,1.73-.11,2.2-.72,2-2.47a105,105,0,0,1-.36-12.54A5.27,5.27,0,0,0,533,606c-.55-.86,0-1.36,1-1.27a5.47,5.47,0,0,1,3.38,1.45,32.51,32.51,0,0,1,4.09,4.69c0,.36,0,.72,0,1.07-.63,0-1.3-.07-1.37-.84-.12-1.16-1-1.77-1.57-2.61-1-1.47-2.8-1.67-4-3.12a6.27,6.27,0,0,0-.28,2.72c0,3.72,0,7.45,0,11.17,0,1.05-.21,2.12.9,2.91.6.42.31,1-.21,1.51a3.53,3.53,0,0,1-2.65.87C531.05,624.54,529.79,624.57,528.53,624.57Z"/><path class="cls-27" d="M540,691.58c.1-2,1.63-3.32,2.3-5.06a16.27,16.27,0,0,0,1.19-3.07,4,4,0,0,1,1.56-2.68c-.09,1.79-1.83,3.1-1.46,5a3.51,3.51,0,0,0-1.44,2.53A10.56,10.56,0,0,1,540,691.58Z"/><path class="cls-27" d="M506.54,722.21c1.93.35,3.06-1.35,4.68-1.79.9,0,1.77.08,2.32-.95.36-.69,1.1-.57,1.86-.32-1.47,2.22-3.95,2.84-6,4.07s-4.78,1.67-6.94,3.09a7.81,7.81,0,0,1-2.6.58,4.09,4.09,0,0,0-1.39.26c-2.91,1.87-6.22,1.19-9.36,1.51-.64.07-1.44.15-1.58-.76s.66-1.1,1.26-1.28c2.53-.77,5.25-.47,7.75-1.23,2.74-.82,5.71-.85,8.26-2.37A17.24,17.24,0,0,1,506.54,722.21Z"/><path class="cls-27" d="M457.9,711.39A4.29,4.29,0,0,1,455,715,11.84,11.84,0,0,1,457.9,711.39Z"/></svg>